<?xml version="1.0" encoding="utf-8"?>
<svg xmlns="http://www.w3.org/2000/svg" viewBox="0 0 500 500">
  <path d="M 450.874 419.973 L 450.874 169.96 C 450.75 161.801 447.411 154.045 441.602 148.328 L 305.624 11.734 C 299.691 5.893 291.69 2.648 283.375 2.774 L 49.126 2.774 L 49.126 419.973 C 49.126 462.648 83.708 497.23 126.383 497.23 L 373.613 497.23 C 416.261 497.23 450.874 462.648 450.874 419.973 M 404.519 419.973 L 404.519 203.643 L 250.001 203.643 L 250.001 49.129 L 95.482 49.129 L 95.482 419.973 C 95.482 437.059 109.297 450.874 126.383 450.874 L 373.613 450.874 C 390.672 450.874 404.519 437.059 404.519 419.973 M 296.356 157.291 L 296.356 68.288 L 385.356 157.291 L 296.356 157.291 Z M 161.305 157.291 L 142.146 157.291 L 142.146 195.919 L 207.661 195.919 L 207.661 157.291 L 161.305 157.291 Z M 142.146 249.999 L 362.179 249.999 L 362.179 288.63 L 141.838 288.63 L 142.146 249.999 Z M 161.305 342.712 L 142.146 342.712 L 142.146 381.343 L 362.179 381.343 L 362.179 342.712 L 161.305 342.712 Z" clip-rule="evenodd" fill-rule="evenodd" style="stroke-width: 1px;"/>
</svg>